<mxfile host="app.diagrams.net" modified="2023-04-22T10:29:50.815Z" agent="Mozilla/5.0 (Windows NT 10.0; Win64; x64) AppleWebKit/537.36 (KHTML, like Gecko) Chrome/112.0.0.0 Safari/537.36" etag="Xd9SISQ59uTlkw8aPWCJ" version="21.1.8" type="device">
  <diagram name="Page-1" id="m-9o20i_-PmIpjad_zd5">
    <mxGraphModel dx="1997" dy="623" grid="1" gridSize="10" guides="1" tooltips="1" connect="1" arrows="1" fold="1" page="1" pageScale="1" pageWidth="850" pageHeight="1100" math="0" shadow="0">
      <root>
        <mxCell id="0" />
        <mxCell id="1" parent="0" />
        <mxCell id="jizd02WMZwkqyDSrAhcb-18" style="edgeStyle=orthogonalEdgeStyle;rounded=0;orthogonalLoop=1;jettySize=auto;html=1;entryX=0.5;entryY=0;entryDx=0;entryDy=0;exitX=1.01;exitY=0.289;exitDx=0;exitDy=0;exitPerimeter=0;" parent="1" edge="1">
          <mxGeometry relative="1" as="geometry">
            <Array as="points">
              <mxPoint x="-489.6" y="75" />
            </Array>
            <mxPoint x="-557.0000000000001" y="75.01999999999998" as="sourcePoint" />
            <mxPoint x="-489.6" y="123" as="targetPoint" />
          </mxGeometry>
        </mxCell>
        <mxCell id="jizd02WMZwkqyDSrAhcb-19" value="&lt;font style=&quot;border-color: var(--border-color); background-color: rgb(251, 251, 251);&quot;&gt;OriginalText,&lt;br style=&quot;border-color: var(--border-color); text-align: left;&quot;&gt;&lt;/font&gt;FromLanguage,&lt;br style=&quot;border-color: var(--border-color);&quot;&gt;&lt;span style=&quot;border-color: var(--border-color); text-align: left;&quot;&gt;ToLanguage&lt;/span&gt;" style="edgeLabel;html=1;align=center;verticalAlign=middle;resizable=0;points=[];" parent="jizd02WMZwkqyDSrAhcb-18" vertex="1" connectable="0">
          <mxGeometry x="0.4896" y="3" relative="1" as="geometry">
            <mxPoint y="-18" as="offset" />
          </mxGeometry>
        </mxCell>
        <mxCell id="jizd02WMZwkqyDSrAhcb-51" style="edgeStyle=orthogonalEdgeStyle;rounded=0;orthogonalLoop=1;jettySize=auto;html=1;" parent="1" source="jizd02WMZwkqyDSrAhcb-1" target="jizd02WMZwkqyDSrAhcb-16" edge="1">
          <mxGeometry relative="1" as="geometry">
            <Array as="points">
              <mxPoint x="-487" y="355" />
            </Array>
          </mxGeometry>
        </mxCell>
        <mxCell id="jizd02WMZwkqyDSrAhcb-52" value="PingPongID" style="edgeLabel;html=1;align=center;verticalAlign=middle;resizable=0;points=[];" parent="jizd02WMZwkqyDSrAhcb-51" vertex="1" connectable="0">
          <mxGeometry x="0.0845" relative="1" as="geometry">
            <mxPoint as="offset" />
          </mxGeometry>
        </mxCell>
        <mxCell id="Drf0sw_uvwbe3akBlWan-4" style="edgeStyle=orthogonalEdgeStyle;rounded=0;orthogonalLoop=1;jettySize=auto;html=1;" edge="1" parent="1" source="jizd02WMZwkqyDSrAhcb-1" target="Drf0sw_uvwbe3akBlWan-1">
          <mxGeometry relative="1" as="geometry">
            <Array as="points">
              <mxPoint x="-757" y="285" />
              <mxPoint x="-757" y="285" />
            </Array>
          </mxGeometry>
        </mxCell>
        <mxCell id="Drf0sw_uvwbe3akBlWan-5" value="Main page link" style="edgeLabel;html=1;align=center;verticalAlign=middle;resizable=0;points=[];" vertex="1" connectable="0" parent="Drf0sw_uvwbe3akBlWan-4">
          <mxGeometry x="-0.1818" y="1" relative="1" as="geometry">
            <mxPoint as="offset" />
          </mxGeometry>
        </mxCell>
        <mxCell id="jizd02WMZwkqyDSrAhcb-1" value="&lt;b&gt;Some Frontend Framework&lt;/b&gt;&lt;br&gt;Ping Pong Page&lt;br&gt;&lt;ul style=&quot;&quot;&gt;&lt;li style=&quot;text-align: left;&quot;&gt;Keep track of ID (Preferably using URL)&lt;/li&gt;&lt;li style=&quot;text-align: left;&quot;&gt;Script uses ID to make requests to Firestore and function endpoints&lt;/li&gt;&lt;li style=&quot;text-align: left;&quot;&gt;Display current Ping Pong&lt;/li&gt;&lt;ul&gt;&lt;li style=&quot;text-align: left;&quot;&gt;Status&lt;/li&gt;&lt;li style=&quot;text-align: left;&quot;&gt;Original Text&lt;/li&gt;&lt;li style=&quot;text-align: left;&quot;&gt;Ping Side Texts&lt;/li&gt;&lt;li style=&quot;text-align: left;&quot;&gt;Pong Side Texts&lt;/li&gt;&lt;/ul&gt;&lt;li style=&quot;text-align: left;&quot;&gt;Refresh data (async request) every 0.5s if status is &quot;Running&quot;&amp;nbsp;&lt;/li&gt;&lt;li style=&quot;border-color: var(--border-color); text-align: left;&quot;&gt;Allow resuming Ping Pongs&lt;/li&gt;&lt;ul&gt;&lt;li style=&quot;border-color: var(--border-color); text-align: left;&quot;&gt;Allow when status is &quot;Paused&quot; but validated server-side too&lt;/li&gt;&lt;/ul&gt;&lt;li style=&quot;text-align: left;&quot;&gt;Contain link back to landing page&amp;nbsp;&lt;/li&gt;&lt;/ul&gt;" style="rounded=0;whiteSpace=wrap;html=1;" parent="1" vertex="1">
          <mxGeometry x="-817" y="315" width="260" height="360" as="geometry" />
        </mxCell>
        <mxCell id="jizd02WMZwkqyDSrAhcb-6" style="rounded=0;orthogonalLoop=1;jettySize=auto;html=1;exitX=1;exitY=0.5;exitDx=0;exitDy=0;edgeStyle=orthogonalEdgeStyle;entryX=0.5;entryY=0;entryDx=0;entryDy=0;entryPerimeter=0;" parent="1" source="jizd02WMZwkqyDSrAhcb-2" target="jizd02WMZwkqyDSrAhcb-14" edge="1">
          <mxGeometry relative="1" as="geometry">
            <mxPoint x="293" y="305" as="targetPoint" />
            <Array as="points">
              <mxPoint x="-67" y="130" />
            </Array>
          </mxGeometry>
        </mxCell>
        <mxCell id="jizd02WMZwkqyDSrAhcb-10" value="&lt;b&gt;Create Record&lt;/b&gt;" style="edgeLabel;html=1;align=center;verticalAlign=middle;resizable=0;points=[];" parent="jizd02WMZwkqyDSrAhcb-6" vertex="1" connectable="0">
          <mxGeometry x="0.2981" y="-1" relative="1" as="geometry">
            <mxPoint x="1" y="-6" as="offset" />
          </mxGeometry>
        </mxCell>
        <mxCell id="jizd02WMZwkqyDSrAhcb-8" style="edgeStyle=orthogonalEdgeStyle;rounded=0;orthogonalLoop=1;jettySize=auto;html=1;" parent="1" source="jizd02WMZwkqyDSrAhcb-2" target="jizd02WMZwkqyDSrAhcb-7" edge="1">
          <mxGeometry relative="1" as="geometry">
            <Array as="points">
              <mxPoint x="-292" y="275" />
              <mxPoint x="-292" y="275" />
            </Array>
          </mxGeometry>
        </mxCell>
        <mxCell id="jizd02WMZwkqyDSrAhcb-34" value="&lt;b&gt;Invoke&lt;/b&gt;" style="edgeLabel;html=1;align=center;verticalAlign=middle;resizable=0;points=[];" parent="jizd02WMZwkqyDSrAhcb-8" vertex="1" connectable="0">
          <mxGeometry x="-0.1803" relative="1" as="geometry">
            <mxPoint as="offset" />
          </mxGeometry>
        </mxCell>
        <mxCell id="jizd02WMZwkqyDSrAhcb-2" value="&lt;b&gt;Cloud Function&lt;br&gt;&lt;/b&gt;Create PingPong&lt;br&gt;&lt;div style=&quot;text-align: left;&quot;&gt;&lt;ul style=&quot;&quot;&gt;&lt;li style=&quot;font-weight: bold;&quot;&gt;&lt;span style=&quot;background-color: initial; font-weight: normal;&quot;&gt;Check for existing identical record&lt;/span&gt;&lt;/li&gt;&lt;li style=&quot;font-weight: bold;&quot;&gt;&lt;span style=&quot;background-color: initial; font-weight: normal;&quot;&gt;Validate Language Codes&lt;/span&gt;&lt;/li&gt;&lt;li style=&quot;font-weight: bold;&quot;&gt;&lt;span style=&quot;background-color: initial; font-weight: normal;&quot;&gt;Validate length&lt;/span&gt;&lt;/li&gt;&lt;li style=&quot;&quot;&gt;&lt;span style=&quot;background-color: initial;&quot;&gt;Create record in firestore with status &quot;Paused&quot;&lt;/span&gt;&lt;/li&gt;&lt;li style=&quot;&quot;&gt;&lt;span style=&quot;background-color: initial;&quot;&gt;Return ID&lt;/span&gt;&lt;/li&gt;&lt;li style=&quot;&quot;&gt;&lt;span style=&quot;background-color: initial;&quot;&gt;Start cloud run job&lt;/span&gt;&lt;/li&gt;&lt;/ul&gt;&lt;/div&gt;" style="rounded=0;whiteSpace=wrap;html=1;" parent="1" vertex="1">
          <mxGeometry x="-392" y="45" width="225" height="170" as="geometry" />
        </mxCell>
        <mxCell id="jizd02WMZwkqyDSrAhcb-9" style="edgeStyle=orthogonalEdgeStyle;rounded=0;orthogonalLoop=1;jettySize=auto;html=1;entryX=0;entryY=0.5;entryDx=0;entryDy=0;entryPerimeter=0;startArrow=classic;startFill=1;" parent="1" source="jizd02WMZwkqyDSrAhcb-7" target="jizd02WMZwkqyDSrAhcb-14" edge="1">
          <mxGeometry relative="1" as="geometry">
            <mxPoint x="233" y="345" as="targetPoint" />
          </mxGeometry>
        </mxCell>
        <mxCell id="jizd02WMZwkqyDSrAhcb-11" value="&lt;b&gt;Read/Write&lt;/b&gt;" style="edgeLabel;html=1;align=center;verticalAlign=middle;resizable=0;points=[];" parent="jizd02WMZwkqyDSrAhcb-9" vertex="1" connectable="0">
          <mxGeometry x="-0.281" y="2" relative="1" as="geometry">
            <mxPoint x="10" y="-13" as="offset" />
          </mxGeometry>
        </mxCell>
        <mxCell id="jizd02WMZwkqyDSrAhcb-7" value="&lt;b&gt;Cloud Run Job&lt;/b&gt;&lt;br&gt;&lt;ul style=&quot;&quot;&gt;&lt;li style=&quot;text-align: left;&quot;&gt;Read ID&lt;/li&gt;&lt;li style=&quot;text-align: left;&quot;&gt;Make sure status is &quot;Paused&quot;&lt;/li&gt;&lt;li style=&quot;text-align: left;&quot;&gt;Change Status to &quot;Running&quot;&lt;br&gt;(take care of nosql consistency!)&lt;br&gt;&lt;/li&gt;&lt;li style=&quot;text-align: left;&quot;&gt;Take last element of &quot;Translations&quot; and other params&lt;/li&gt;&lt;li style=&quot;text-align: left;&quot;&gt;Run translation code generating a list&lt;/li&gt;&lt;li style=&quot;text-align: left;&quot;&gt;Append list to DB record&lt;/li&gt;&lt;li style=&quot;text-align: left;&quot;&gt;Detect Loops and mark in status &quot;Looped&quot;&lt;/li&gt;&lt;li style=&quot;text-align: left;&quot;&gt;Stop after N iterations and mark status &quot;Paused&quot;&lt;/li&gt;&lt;/ul&gt;" style="rounded=0;whiteSpace=wrap;html=1;" parent="1" vertex="1">
          <mxGeometry x="-392" y="255" width="225" height="230" as="geometry" />
        </mxCell>
        <mxCell id="jizd02WMZwkqyDSrAhcb-31" style="edgeStyle=orthogonalEdgeStyle;rounded=0;orthogonalLoop=1;jettySize=auto;html=1;" parent="1" source="jizd02WMZwkqyDSrAhcb-14" target="jizd02WMZwkqyDSrAhcb-1" edge="1">
          <mxGeometry relative="1" as="geometry">
            <Array as="points">
              <mxPoint x="-67" y="705" />
              <mxPoint x="-587" y="705" />
            </Array>
            <mxPoint x="-727" y="705" as="targetPoint" />
          </mxGeometry>
        </mxCell>
        <mxCell id="jizd02WMZwkqyDSrAhcb-33" value="&lt;b&gt;Firebase web SDK Firestore read&lt;/b&gt;" style="edgeLabel;html=1;align=center;verticalAlign=middle;resizable=0;points=[];" parent="jizd02WMZwkqyDSrAhcb-31" vertex="1" connectable="0">
          <mxGeometry x="0.3603" y="1" relative="1" as="geometry">
            <mxPoint x="85" as="offset" />
          </mxGeometry>
        </mxCell>
        <mxCell id="jizd02WMZwkqyDSrAhcb-40" style="edgeStyle=orthogonalEdgeStyle;rounded=0;orthogonalLoop=1;jettySize=auto;html=1;entryX=1;entryY=0.75;entryDx=0;entryDy=0;" parent="1" source="jizd02WMZwkqyDSrAhcb-14" target="jizd02WMZwkqyDSrAhcb-30" edge="1">
          <mxGeometry relative="1" as="geometry">
            <Array as="points">
              <mxPoint x="-67" y="627" />
            </Array>
          </mxGeometry>
        </mxCell>
        <mxCell id="jizd02WMZwkqyDSrAhcb-41" value="&lt;b&gt;Read&lt;/b&gt;" style="edgeLabel;html=1;align=center;verticalAlign=middle;resizable=0;points=[];" parent="jizd02WMZwkqyDSrAhcb-40" vertex="1" connectable="0">
          <mxGeometry x="0.2081" y="1" relative="1" as="geometry">
            <mxPoint as="offset" />
          </mxGeometry>
        </mxCell>
        <mxCell id="jizd02WMZwkqyDSrAhcb-14" value="Firestore" style="shape=cylinder3;whiteSpace=wrap;html=1;boundedLbl=1;backgroundOutline=1;size=15;" parent="1" vertex="1">
          <mxGeometry x="-97" y="330" width="60" height="80" as="geometry" />
        </mxCell>
        <mxCell id="jizd02WMZwkqyDSrAhcb-20" style="edgeStyle=orthogonalEdgeStyle;rounded=0;orthogonalLoop=1;jettySize=auto;html=1;startArrow=classic;startFill=1;" parent="1" source="jizd02WMZwkqyDSrAhcb-15" target="jizd02WMZwkqyDSrAhcb-2" edge="1">
          <mxGeometry relative="1" as="geometry" />
        </mxCell>
        <mxCell id="jizd02WMZwkqyDSrAhcb-21" style="edgeStyle=orthogonalEdgeStyle;rounded=0;orthogonalLoop=1;jettySize=auto;html=1;exitX=0.5;exitY=1;exitDx=0;exitDy=0;" parent="1" source="jizd02WMZwkqyDSrAhcb-15" edge="1" target="Drf0sw_uvwbe3akBlWan-1">
          <mxGeometry relative="1" as="geometry">
            <mxPoint x="-767" y="315" as="targetPoint" />
            <Array as="points">
              <mxPoint x="-487" y="245" />
              <mxPoint x="-577" y="245" />
            </Array>
          </mxGeometry>
        </mxCell>
        <mxCell id="jizd02WMZwkqyDSrAhcb-22" value="PingPongID/FAIL" style="edgeLabel;html=1;align=center;verticalAlign=middle;resizable=0;points=[];" parent="jizd02WMZwkqyDSrAhcb-21" vertex="1" connectable="0">
          <mxGeometry x="0.1173" y="-1" relative="1" as="geometry">
            <mxPoint x="13" as="offset" />
          </mxGeometry>
        </mxCell>
        <mxCell id="jizd02WMZwkqyDSrAhcb-15" value="&lt;b&gt;Create Request&lt;/b&gt;&lt;span style=&quot;border-color: var(--border-color); text-align: left; background-color: rgb(255, 255, 255); font-size: 11px;&quot;&gt;&lt;br&gt;&lt;/span&gt;" style="ellipse;whiteSpace=wrap;html=1;" parent="1" vertex="1">
          <mxGeometry x="-547" y="125" width="120" height="80" as="geometry" />
        </mxCell>
        <mxCell id="jizd02WMZwkqyDSrAhcb-50" style="edgeStyle=orthogonalEdgeStyle;rounded=0;orthogonalLoop=1;jettySize=auto;html=1;entryX=0.002;entryY=0.412;entryDx=0;entryDy=0;entryPerimeter=0;startArrow=classic;startFill=1;" parent="1" source="jizd02WMZwkqyDSrAhcb-16" target="jizd02WMZwkqyDSrAhcb-30" edge="1">
          <mxGeometry relative="1" as="geometry">
            <Array as="points">
              <mxPoint x="-412" y="435" />
              <mxPoint x="-412" y="570" />
            </Array>
          </mxGeometry>
        </mxCell>
        <mxCell id="jizd02WMZwkqyDSrAhcb-53" style="edgeStyle=orthogonalEdgeStyle;rounded=0;orthogonalLoop=1;jettySize=auto;html=1;" parent="1" source="jizd02WMZwkqyDSrAhcb-16" target="jizd02WMZwkqyDSrAhcb-1" edge="1">
          <mxGeometry relative="1" as="geometry">
            <Array as="points">
              <mxPoint x="-487" y="525" />
            </Array>
          </mxGeometry>
        </mxCell>
        <mxCell id="jizd02WMZwkqyDSrAhcb-54" value="OK/FAIL" style="edgeLabel;html=1;align=center;verticalAlign=middle;resizable=0;points=[];" parent="jizd02WMZwkqyDSrAhcb-53" vertex="1" connectable="0">
          <mxGeometry x="0.0109" y="-1" relative="1" as="geometry">
            <mxPoint as="offset" />
          </mxGeometry>
        </mxCell>
        <mxCell id="jizd02WMZwkqyDSrAhcb-16" value="&lt;b&gt;Resume Request&lt;/b&gt;&lt;span style=&quot;border-color: var(--border-color); font-size: 11px; text-align: left; background-color: rgb(255, 255, 255);&quot;&gt;&lt;br&gt;&lt;/span&gt;" style="ellipse;whiteSpace=wrap;html=1;" parent="1" vertex="1">
          <mxGeometry x="-547" y="395" width="120" height="80" as="geometry" />
        </mxCell>
        <mxCell id="jizd02WMZwkqyDSrAhcb-38" style="edgeStyle=orthogonalEdgeStyle;rounded=0;orthogonalLoop=1;jettySize=auto;html=1;entryX=1;entryY=0.75;entryDx=0;entryDy=0;" parent="1" source="jizd02WMZwkqyDSrAhcb-30" target="jizd02WMZwkqyDSrAhcb-7" edge="1">
          <mxGeometry relative="1" as="geometry">
            <Array as="points">
              <mxPoint x="-137" y="555" />
              <mxPoint x="-137" y="428" />
            </Array>
          </mxGeometry>
        </mxCell>
        <mxCell id="jizd02WMZwkqyDSrAhcb-39" value="&lt;b&gt;Invoke&lt;/b&gt;" style="edgeLabel;html=1;align=center;verticalAlign=middle;resizable=0;points=[];" parent="jizd02WMZwkqyDSrAhcb-38" vertex="1" connectable="0">
          <mxGeometry x="-0.139" y="-2" relative="1" as="geometry">
            <mxPoint as="offset" />
          </mxGeometry>
        </mxCell>
        <mxCell id="jizd02WMZwkqyDSrAhcb-30" value="&lt;b&gt;Cloud Function&lt;br&gt;&lt;/b&gt;Resume Ping Pong&lt;br&gt;&lt;div style=&quot;text-align: left;&quot;&gt;&lt;ul style=&quot;&quot;&gt;&lt;li style=&quot;&quot;&gt;Take ID&lt;/li&gt;&lt;li style=&quot;&quot;&gt;Read record from Firestore (take care of&amp;nbsp;nosql consistency!)&amp;nbsp;&lt;/li&gt;&lt;li style=&quot;&quot;&gt;Check if status is &quot;Paused&quot;&lt;/li&gt;&lt;li style=&quot;&quot;&gt;Return OK or FAIL&amp;nbsp;&lt;/li&gt;&lt;li style=&quot;&quot;&gt;Return error info why failed&lt;/li&gt;&lt;/ul&gt;&lt;/div&gt;" style="rounded=0;whiteSpace=wrap;html=1;" parent="1" vertex="1">
          <mxGeometry x="-392" y="500" width="225" height="170" as="geometry" />
        </mxCell>
        <mxCell id="jizd02WMZwkqyDSrAhcb-35" value="&lt;div style=&quot;text-align: left;&quot;&gt;&lt;span style=&quot;background-color: initial;&quot;&gt;&lt;font face=&quot;Courier New&quot;&gt;{&lt;/font&gt;&lt;/span&gt;&lt;/div&gt;&lt;div style=&quot;text-align: left;&quot;&gt;&lt;span style=&quot;background-color: initial;&quot;&gt;&lt;font face=&quot;Courier New&quot;&gt;&amp;nbsp; &quot;ID&quot;:&quot;1234-abcd-...&quot;,&lt;/font&gt;&lt;/span&gt;&lt;/div&gt;&lt;div style=&quot;text-align: left;&quot;&gt;&lt;div style=&quot;border-color: var(--border-color);&quot;&gt;&lt;font style=&quot;border-color: var(--border-color);&quot; face=&quot;Courier New&quot;&gt;&amp;nbsp; &quot;CreateDate&quot;: &quot;2023-01-25T14:48:00.000Z&quot;,&lt;/font&gt;&lt;/div&gt;&lt;/div&gt;&lt;div style=&quot;text-align: left;&quot;&gt;&lt;font face=&quot;Courier New&quot;&gt;&amp;nbsp; &quot;OriginalText&quot;: &quot;Hello World!&quot;,&lt;br&gt;&amp;nbsp; &quot;FromLanguage&quot;: &quot;Eng_Latn&quot;,&lt;/font&gt;&lt;/div&gt;&lt;div style=&quot;text-align: left;&quot;&gt;&lt;span style=&quot;background-color: initial;&quot;&gt;&lt;font face=&quot;Courier New&quot;&gt;&amp;nbsp; &quot;ToLanguage&quot;: &quot;Pol_Latn&quot;,&lt;/font&gt;&lt;/span&gt;&lt;/div&gt;&lt;div style=&quot;text-align: left;&quot;&gt;&lt;span style=&quot;background-color: initial;&quot;&gt;&lt;font face=&quot;Courier New&quot;&gt;&amp;nbsp; &quot;Status&quot;: &quot;Paused&quot;,&lt;/font&gt;&lt;/span&gt;&lt;/div&gt;&lt;div style=&quot;text-align: left;&quot;&gt;&lt;font face=&quot;Courier New&quot;&gt;&amp;nbsp; &quot;Translations&quot;: [&lt;/font&gt;&lt;/div&gt;&lt;div style=&quot;text-align: left;&quot;&gt;&lt;font face=&quot;Courier New&quot;&gt;&amp;nbsp; &amp;nbsp; &quot;Hello World!&quot;,&lt;/font&gt;&lt;/div&gt;&lt;div style=&quot;text-align: left;&quot;&gt;&lt;font face=&quot;Courier New&quot;&gt;&amp;nbsp; &amp;nbsp; &quot;Witaj, świecie!&quot;,&lt;/font&gt;&lt;/div&gt;&lt;div style=&quot;text-align: left;&quot;&gt;&lt;font face=&quot;Courier New&quot;&gt;&amp;nbsp; &amp;nbsp; &quot;Hello, world!&quot;&lt;/font&gt;&lt;/div&gt;&lt;div style=&quot;text-align: left;&quot;&gt;&lt;font face=&quot;Courier New&quot;&gt;&amp;nbsp; ]&lt;/font&gt;&lt;/div&gt;&lt;div style=&quot;text-align: left;&quot;&gt;&lt;span style=&quot;background-color: initial;&quot;&gt;&lt;font face=&quot;Courier New&quot;&gt;}&lt;/font&gt;&lt;/span&gt;&lt;/div&gt;" style="rounded=0;whiteSpace=wrap;html=1;" parent="1" vertex="1">
          <mxGeometry x="-807" y="735" width="330" height="200" as="geometry" />
        </mxCell>
        <mxCell id="jizd02WMZwkqyDSrAhcb-37" value="&lt;b&gt;&lt;font style=&quot;font-size: 16px;&quot;&gt;Example Firestore Records&lt;/font&gt;&lt;/b&gt;" style="text;html=1;strokeColor=none;fillColor=none;align=center;verticalAlign=middle;whiteSpace=wrap;rounded=0;" parent="1" vertex="1">
          <mxGeometry x="-397" y="755" width="260" height="30" as="geometry" />
        </mxCell>
        <mxCell id="Drf0sw_uvwbe3akBlWan-2" style="edgeStyle=orthogonalEdgeStyle;rounded=0;orthogonalLoop=1;jettySize=auto;html=1;" edge="1" parent="1" source="Drf0sw_uvwbe3akBlWan-1" target="jizd02WMZwkqyDSrAhcb-1">
          <mxGeometry relative="1" as="geometry">
            <Array as="points">
              <mxPoint x="-687" y="235" />
              <mxPoint x="-687" y="235" />
            </Array>
          </mxGeometry>
        </mxCell>
        <mxCell id="Drf0sw_uvwbe3akBlWan-3" value="&lt;b&gt;Redirect&lt;/b&gt;" style="edgeLabel;html=1;align=center;verticalAlign=middle;resizable=0;points=[];" vertex="1" connectable="0" parent="Drf0sw_uvwbe3akBlWan-2">
          <mxGeometry x="0.1667" y="1" relative="1" as="geometry">
            <mxPoint as="offset" />
          </mxGeometry>
        </mxCell>
        <mxCell id="Drf0sw_uvwbe3akBlWan-1" value="&lt;b&gt;Plain static HTML/JS&lt;/b&gt;&lt;br&gt;&lt;span style=&quot;text-align: left; background-color: initial;&quot;&gt;Landing page&lt;/span&gt;&lt;br&gt;&lt;br&gt;&lt;ul&gt;&lt;li style=&quot;text-align: left; border-color: var(--border-color);&quot;&gt;Allow creating new Ping Pongs&lt;/li&gt;&lt;li style=&quot;text-align: left; border-color: var(--border-color);&quot;&gt;Collect original prompt&lt;/li&gt;&lt;li style=&quot;text-align: left; border-color: var(--border-color);&quot;&gt;Allow picking languages&lt;/li&gt;&lt;li style=&quot;text-align: left; border-color: var(--border-color);&quot;&gt;Send creation request to function endpoint&lt;/li&gt;&lt;li style=&quot;text-align: left; border-color: var(--border-color);&quot;&gt;Redirect to appropriate page when successful&lt;/li&gt;&lt;/ul&gt;" style="rounded=0;whiteSpace=wrap;html=1;" vertex="1" parent="1">
          <mxGeometry x="-817" y="25" width="260" height="180" as="geometry" />
        </mxCell>
        <mxCell id="jizd02WMZwkqyDSrAhcb-24" value="&lt;div style=&quot;text-align: left;&quot;&gt;&lt;span style=&quot;background-color: initial;&quot;&gt;&lt;font face=&quot;Courier New&quot;&gt;{&lt;/font&gt;&lt;/span&gt;&lt;/div&gt;&lt;div style=&quot;text-align: left;&quot;&gt;&lt;span style=&quot;background-color: initial;&quot;&gt;&lt;font face=&quot;Courier New&quot;&gt;&amp;nbsp; &quot;ID&quot;:&quot;1234-abcd-...&quot;,&lt;/font&gt;&lt;/span&gt;&lt;/div&gt;&lt;div style=&quot;text-align: left;&quot;&gt;&lt;div style=&quot;border-color: var(--border-color);&quot;&gt;&lt;font style=&quot;border-color: var(--border-color);&quot; face=&quot;Courier New&quot;&gt;&amp;nbsp; &quot;CreateDate&quot;: &quot;2023-01-25T14:48:00.000Z&quot;,&lt;/font&gt;&lt;/div&gt;&lt;/div&gt;&lt;div style=&quot;text-align: left;&quot;&gt;&lt;font face=&quot;Courier New&quot;&gt;&amp;nbsp; &quot;OriginalText&quot;: &quot;Hello World!&quot;,&lt;br&gt;&amp;nbsp; &quot;FromLanguage&quot;: &quot;Eng_Latn&quot;,&lt;/font&gt;&lt;/div&gt;&lt;div style=&quot;text-align: left;&quot;&gt;&lt;span style=&quot;background-color: initial;&quot;&gt;&lt;font face=&quot;Courier New&quot;&gt;&amp;nbsp; &quot;ToLanguage&quot;: &quot;Pol_Latn&quot;,&lt;/font&gt;&lt;/span&gt;&lt;/div&gt;&lt;div style=&quot;text-align: left;&quot;&gt;&lt;span style=&quot;background-color: initial;&quot;&gt;&lt;font face=&quot;Courier New&quot;&gt;&amp;nbsp; &quot;Status&quot;: &quot;Looped&quot;,&lt;/font&gt;&lt;/span&gt;&lt;/div&gt;&lt;div style=&quot;text-align: left;&quot;&gt;&lt;font face=&quot;Courier New&quot;&gt;&amp;nbsp; &quot;Translations&quot;: [&lt;/font&gt;&lt;/div&gt;&lt;div style=&quot;text-align: left;&quot;&gt;&lt;font face=&quot;Courier New&quot;&gt;&amp;nbsp; &amp;nbsp; &quot;Hello World!&quot;,&lt;/font&gt;&lt;/div&gt;&lt;div style=&quot;text-align: left;&quot;&gt;&lt;font face=&quot;Courier New&quot;&gt;&amp;nbsp; &amp;nbsp; &quot;Witaj Świecie!&quot;,&lt;/font&gt;&lt;/div&gt;&lt;div style=&quot;text-align: left;&quot;&gt;&lt;font face=&quot;Courier New&quot;&gt;&amp;nbsp; &amp;nbsp; &quot;Hello World!&quot;&lt;/font&gt;&lt;/div&gt;&lt;div style=&quot;text-align: left;&quot;&gt;&lt;font face=&quot;Courier New&quot;&gt;&amp;nbsp; ]&lt;/font&gt;&lt;/div&gt;&lt;div style=&quot;text-align: left;&quot;&gt;&lt;span style=&quot;background-color: initial;&quot;&gt;&lt;font face=&quot;Courier New&quot;&gt;}&lt;/font&gt;&lt;/span&gt;&lt;/div&gt;" style="rounded=0;whiteSpace=wrap;html=1;" parent="1" vertex="1">
          <mxGeometry x="-587" y="795" width="330" height="200" as="geometry" />
        </mxCell>
        <mxCell id="jizd02WMZwkqyDSrAhcb-27" value="&lt;div style=&quot;text-align: left;&quot;&gt;&lt;span style=&quot;background-color: initial;&quot;&gt;&lt;font face=&quot;Courier New&quot;&gt;{&lt;/font&gt;&lt;/span&gt;&lt;/div&gt;&lt;div style=&quot;text-align: left;&quot;&gt;&lt;span style=&quot;background-color: initial;&quot;&gt;&lt;font face=&quot;Courier New&quot;&gt;&amp;nbsp; &quot;ID&quot;:&quot;1234-abcd-...&quot;,&lt;/font&gt;&lt;/span&gt;&lt;/div&gt;&lt;div style=&quot;text-align: left;&quot;&gt;&lt;font face=&quot;Courier New&quot;&gt;&amp;nbsp; &quot;CreateDate&quot;: &quot;2023-01-25T14:48:00.000Z&quot;,&lt;/font&gt;&lt;/div&gt;&lt;div style=&quot;text-align: left;&quot;&gt;&lt;span style=&quot;background-color: initial;&quot;&gt;&lt;font face=&quot;Courier New&quot;&gt;&amp;nbsp; &quot;OriginalText&quot;: &quot;Hello World!&quot;,&lt;br&gt;&amp;nbsp; &quot;FromLanguage&quot;: &quot;Eng_Latn&quot;,&lt;/font&gt;&lt;/span&gt;&lt;/div&gt;&lt;div style=&quot;text-align: left;&quot;&gt;&lt;span style=&quot;background-color: initial;&quot;&gt;&lt;font face=&quot;Courier New&quot;&gt;&amp;nbsp; &quot;ToLanguage&quot;: &quot;Pol_Latn&quot;,&lt;/font&gt;&lt;/span&gt;&lt;/div&gt;&lt;div style=&quot;text-align: left;&quot;&gt;&lt;span style=&quot;background-color: initial;&quot;&gt;&lt;font face=&quot;Courier New&quot;&gt;&amp;nbsp; &quot;Status&quot;: &quot;Paused&quot;,&lt;/font&gt;&lt;/span&gt;&lt;/div&gt;&lt;div style=&quot;text-align: left;&quot;&gt;&lt;font face=&quot;Courier New&quot;&gt;&amp;nbsp; &quot;Translations&quot;: [&lt;/font&gt;&lt;/div&gt;&lt;div style=&quot;text-align: left;&quot;&gt;&lt;font face=&quot;Courier New&quot;&gt;&amp;nbsp; &amp;nbsp; &quot;Hello World!&quot;&lt;/font&gt;&lt;/div&gt;&lt;div style=&quot;text-align: left;&quot;&gt;&lt;span style=&quot;font-family: &amp;quot;Courier New&amp;quot;; background-color: initial;&quot;&gt;&amp;nbsp; ]&lt;/span&gt;&lt;br&gt;&lt;/div&gt;&lt;div style=&quot;text-align: left;&quot;&gt;&lt;span style=&quot;background-color: initial;&quot;&gt;&lt;font face=&quot;Courier New&quot;&gt;}&lt;/font&gt;&lt;/span&gt;&lt;/div&gt;" style="rounded=0;whiteSpace=wrap;html=1;" parent="1" vertex="1">
          <mxGeometry x="-377" y="875" width="330" height="200" as="geometry" />
        </mxCell>
      </root>
    </mxGraphModel>
  </diagram>
</mxfile>
